<?xml version="1.0" standalone="no"?>
<!DOCTYPE svg PUBLIC "-//W3C//DTD SVG 20010904//EN"
 "http://www.w3.org/TR/2001/REC-SVG-20010904/DTD/svg10.dtd">
<svg version="1.0" xmlns="http://www.w3.org/2000/svg"
 width="24.000000pt" height="24.000000pt" viewBox="0 0 24.000000 24.000000"
 preserveAspectRatio="xMidYMid meet">

<g transform="translate(0.000000,24.000000) scale(0.100000,-0.100000)"
fill="#000000" stroke="none">
<path d="M83 155 c-7 -8 -13 -30 -13 -50 0 -34 1 -35 36 -35 45 0 64 19 64 64
0 35 -1 36 -37 36 -21 -1 -44 -7 -50 -15z m76 -27 c-2 -30 -2 -30 -6 -6 -3 20
-11 28 -31 31 -24 4 -24 4 6 6 30 1 32 -1 31 -31z m-19 -18 c0 -27 -3 -30 -30
-30 -27 0 -30 3 -30 30 0 27 3 30 30 30 27 0 30 -3 30 -30z"/>
</g>
</svg>
